<svg id="Layer_1" enable-background="new 0 0 510 510" height="512" viewBox="0 0 510 510" width="512"
    xmlns="http://www.w3.org/2000/svg">
    <g id="XMLID_2435_">
        <path id="XMLID_2669_" d="m165 480h180v30h-180z" />
        <path id="XMLID_2706_"
            d="m225 270c1.65 39.803 58.359 39.784 60 0 0-9.292-14.065-31.778-30.006-51.767-15.899 19.88-29.994 42.207-29.994 51.767z" />
        <path id="XMLID_2711_"
            d="m343.667 90h-13.667v-60h30v-30h-210v30h30v60h-13.666c-33.82 0-61.334 27.514-61.334 61.334v208.666h300v-208.666c0-33.82-27.514-61.334-61.333-61.334zm-133.667-60h90v60h-30v-30h-30v30h-30zm45 300c-33.084 0-60-26.916-60-60 0-29.983 40.241-75.409 60-97.459 19.652 21.931 60 67.398 60 97.459 0 33.084-26.916 60-60 60z" />
        <path id="XMLID_2713_"
            d="m166.334 450h177.333c33.372 0 60.585-26.796 61.299-60h-299.933c.715 33.204 27.928 60 61.301 60z" />
    </g>
</svg>